<?xml version="1.0" encoding="UTF-8"?><svg id="Layer_1" xmlns="http://www.w3.org/2000/svg" viewBox="0 0 370 370"><defs><style>.cls-1{fill:#fff;}</style></defs><path class="cls-1" d="M185,5.99C86.14,5.99,5.99,86.14,5.99,185s80.15,179.01,179.01,179.01,179.01-80.14,179.01-179.01S283.86,5.99,185,5.99ZM242.36,257.33h-.01l-33.64-35.15c-6.22-6.39-14.13-9.92-23.72-9.92s-17.49,3.53-23.72,9.92l-33.64,35.15h-27.42l46.43-46.43c10.26-10.26,23.72-16.82,38.35-16.82s28.09,6.56,38.35,16.82l46.43,46.43h-27.42ZM223.35,159.1c-10.26,10.26-23.72,16.82-38.35,16.82s-28.09-6.56-38.35-16.82l-46.43-46.43h27.42l33.65,35.15c6.22,6.39,14.13,9.92,23.72,9.92s17.49-3.53,23.72-9.92h0l33.64-35.15h27.42l-46.43,46.43Z"/></svg>